<?xml version="1.0" encoding="UTF-8"?><svg version="1.1" viewBox="0 0 24 24" xmlns="http://www.w3.org/2000/svg"><g transform="translate(0-1028.4)"><path fill="#16A085" d="M3 8v2 1 3 1 5 1c0 1.105.8954 2 2 2h14c1.105 0 2-.895 2-2v-1 -5 -4V8H3Z" transform="translate(0 1028.4)"/><path fill="#ECF0F1" d="M3 1035.4v2 1 3 1 5 1c0 1.1.8954 2 2 2h14c1.105 0 2-.9 2-2v-1 -5 -4 -3H3Z"/><path fill="#BDC3C7" d="M3 1034.4v2 1 3 1 5 1c0 1.1.8954 2 2 2h14c1.105 0 2-.9 2-2v-1 -5 -4 -3H3Z"/><path fill="#ECF0F1" d="M3 1033.4v2 1 3 1 5 1c0 1.1.8954 2 2 2h14c1.105 0 2-.9 2-2v-1 -5 -4 -3H3Z"/><path fill="#16A085" d="M5 1c-1.1046 0-2 .8954-2 2v1 4 2 1 3 1 5 1c0 1.105.8954 2 2 2h2v-1H5.5c-.8284 0-1.5-.672-1.5-1.5s.6716-1.5 1.5-1.5H18h1c1.105 0 2-.895 2-2v-1 -5V7 4 3c0-1.1046-.895-2-2-2h-4H5Z" transform="translate(0 1028.4)"/><path fill="#1ABC9C" d="M8 1v18h1 9 1c1.105 0 2-.895 2-2v-1 -5V7 4 3c0-1.1046-.895-2-2-2h-4H9 8Z" transform="translate(0 1028.4)"/></g></svg>